<svg width="138" height="110" viewBox="0 0 138 110" xmlns="http://www.w3.org/2000/svg">
    <title>
        Dashboard
    </title>
    <path d="M117.285 20.772a5.38 5.38 0 0 0-6.849-.643c-8.065 5.512-48.523 33.234-52.871 37.593-6.305 6.323-6.305 16.61 0 22.934A16.101 16.101 0 0 0 69 85.398c4.141 0 8.283-1.581 11.436-4.742 4.348-4.36 31.993-44.929 37.492-53.017a5.418 5.418 0 0 0-.643-6.867zm-44.473 52.24a5.385 5.385 0 0 1-7.623 0 5.421 5.421 0 0 1-.001-7.644c1.69-1.674 13.176-9.889 27.308-19.74-9.823 14.172-18.015 25.69-19.684 27.383zM129.976 131.896l-6.656 3.255c-4.869-8.713-7.423-18.44-7.423-28.396a58.235 58.235 0 0 1 3.79-20.725l7.625 3.667a5.358 5.358 0 0 0 2.328.533 5.39 5.39 0 0 0 4.864-3.069 5.412 5.412 0 0 0-2.53-7.211l-7.528-3.621c9.358-15.303 25.547-25.973 44.28-27.704v8.13c0 2.985 2.413 5.405 5.39 5.405 2.978 0 5.39-2.42 5.39-5.405v-8.134a57.425 57.425 0 0 1 18.537 4.896 5.385 5.385 0 0 0 7.131-2.702 5.412 5.412 0 0 0-2.696-7.15c-8.939-4.048-18.481-6.099-28.362-6.099-18.43 0-35.758 7.197-48.79 20.265-13.034 13.068-20.21 30.443-20.21 48.924 0 13.657 4.042 26.939 11.69 38.409a5.386 5.386 0 0 0 4.485 2.402c.796 0 1.603-.177 2.36-.548l11.051-5.405a5.412 5.412 0 0 0 2.482-7.228 5.385 5.385 0 0 0-7.209-2.489z"/>
    <path d="M131.919 40.749a5.384 5.384 0 0 0-7.133-2.703 5.411 5.411 0 0 0-2.695 7.15c3.402 7.557 5.127 15.63 5.127 23.993 0 9.971-2.562 19.713-7.446 28.437l-6.946-3.318a5.384 5.384 0 0 0-7.185 2.558 5.412 5.412 0 0 0 2.55 7.204l11.32 5.406a5.386 5.386 0 0 0 6.799-1.876C133.958 96.129 138 82.846 138 69.19c0-9.908-2.046-19.477-6.081-28.44z"/>
</svg>
