<svg width="130" height="157" viewBox="0 0 130 157" xmlns="http://www.w3.org/2000/svg">
    <title>
        Files
    </title>
    <path d="M98.999 33.122H55.495a6.133 6.133 0 0 0-6.132 6.134 6.133 6.133 0 0 0 6.132 6.133H99a6.133 6.133 0 0 0 6.132-6.133A6.133 6.133 0 0 0 99 33.122zM98.999 57.657H55.495a6.133 6.133 0 0 0-6.132 6.133 6.133 6.133 0 0 0 6.132 6.134H99a6.132 6.132 0 0 0 6.132-6.134A6.133 6.133 0 0 0 99 57.657zM74.198 82.192H55.495a6.133 6.133 0 0 0-6.132 6.133 6.133 6.133 0 0 0 6.132 6.134h18.703a6.133 6.133 0 0 0 6.132-6.134 6.133 6.133 0 0 0-6.132-6.133z"/>
    <path fill-rule="evenodd" d="M130 24.535C130 11.006 118.996 0 105.472 0H49.057C35.539 0 24.54 10.994 24.528 24.512 11.004 24.512 0 35.518 0 49.047v83.418C0 145.993 11.003 157 24.528 157H84.01c13.525 0 24.529-11.006 24.529-24.535v-.186c12.078-1.514 21.455-11.848 21.462-24.33V24.535zm-24.526 95.667c6.761-.001 12.262-5.505 12.262-12.267v-83.4c0-6.764-5.502-12.268-12.264-12.268H49.057c-6.763 0-12.265 5.504-12.265 12.268v83.414a12.19 12.19 0 0 0 3.594 8.675 12.183 12.183 0 0 0 8.67 3.592l56.418-.014zm-56.417 12.281c-6.552 0-12.71-2.551-17.342-7.184-4.634-4.634-7.186-10.796-7.186-17.351V36.779c-6.763 0-12.264 5.503-12.264 12.267v83.419c0 6.764 5.501 12.267 12.264 12.267h59.48c6.76 0 12.26-5.5 12.264-12.261l-47.216.012z"/>
</svg>
