<svg width="198" height="198" viewBox="0 0 198 198" xmlns="http://www.w3.org/2000/svg">
    <title>
        Filteren
    </title>
    <path fill-rule="evenodd" d="M190.266 0H7.734A7.736 7.736 0 0 0 0 7.737c0 29.98 8.867 56.226 27.904 82.599 11.877 16.454 33.183 28.568 44.026 33.993v46.976a7.744 7.744 0 0 0 4.33 6.949l38.673 18.956a7.72 7.72 0 0 0 7.496-.382 7.735 7.735 0 0 0 3.641-6.566v-65.546c14.374-6.779 32.933-19.011 44.026-34.38C189.133 63.963 198 37.716 198 7.737A7.736 7.736 0 0 0 190.266 0zm-79.664 177.854v-19.48l-.194-38.91c0-3.184 1.16-4.175 1.16-4.175s2.514-2.214 3.807-2.751c13.932-5.775 32.378-17.681 42.18-31.262 15.367-21.287 23.33-42.381 24.745-65.801H15.7c1.415 23.42 9.378 44.514 24.745 65.801 9.275 12.85 28.009 24.52 42.448 31.158a7.737 7.737 0 0 1 4.505 7.03v47.016l23.204 11.374z"/>
</svg>
