<svg width="132" height="157" viewBox="0 0 132 157" xmlns="http://www.w3.org/2000/svg">
    <title>
        Maps
    </title>
    <path d="M43.051 35.602a6.134 6.134 0 0 0 1.156 8.6 6.14 6.14 0 0 0 8.6-1.166 16.79 16.79 0 0 1 1.484-1.696c6.463-6.463 16.974-6.47 23.43-.013 6.456 6.456 6.45 16.967-.012 23.43-6.463 6.463-16.975 6.469-23.43.013a16.782 16.782 0 0 1-1.751-2.057 6.134 6.134 0 0 0-8.564-1.392 6.137 6.137 0 0 0-1.401 8.565 29.025 29.025 0 0 0 3.033 3.567c11.238 11.239 29.535 11.229 40.786-.022 11.25-11.251 11.26-29.548.022-40.786-11.239-11.239-29.535-11.229-40.786.022a29.315 29.315 0 0 0-2.567 2.935z"/>
    <path d="M43.051 35.602a6.134 6.134 0 0 0 1.156 8.6 6.14 6.14 0 0 0 8.6-1.166 16.79 16.79 0 0 1 1.484-1.696c6.463-6.463 16.974-6.47 23.43-.013 6.456 6.456 6.45 16.967-.012 23.43-6.463 6.463-16.975 6.469-23.43.013a16.782 16.782 0 0 1-1.751-2.057 6.134 6.134 0 0 0-8.564-1.392 6.137 6.137 0 0 0-1.401 8.565 29.025 29.025 0 0 0 3.033 3.567c11.238 11.239 29.535 11.229 40.786-.022 11.25-11.251 11.26-29.548.022-40.786-11.239-11.239-29.535-11.229-40.786.022a29.315 29.315 0 0 0-2.567 2.935zM122.105 121.616c-4.723-2.474-11.208-4.559-19.273-6.196a6.14 6.14 0 0 0-7.24 4.788 6.134 6.134 0 0 0 4.795 7.232c12.441 2.525 17.542 5.556 19.013 7.025-1.083 1.085-4.708 3.809-15.356 6.369-10.46 2.515-23.97 3.9-38.044 3.9-14.074 0-27.584-1.385-38.044-3.9-10.648-2.56-14.272-5.284-15.356-6.369 1.471-1.469 6.572-4.5 19.013-7.025a6.134 6.134 0 0 0 4.794-7.232 6.14 6.14 0 0 0-7.239-4.788c-8.065 1.637-14.55 3.722-19.272 6.196C3.329 125.057 0 129.383 0 134.475c0 7.609 7.418 13.499 22.049 17.506C33.869 155.217 49.478 157 66 157c16.522 0 32.131-1.783 43.951-5.019 14.631-4.007 22.049-9.897 22.049-17.506 0-5.092-3.329-9.418-9.895-12.859z"/>
    <path d="M60.81 129.613a6.142 6.142 0 0 0 10.38-.001c5.629-8.895 12.955-16.698 20.041-24.244 13.845-14.744 28.161-29.99 28.183-52.633-.017-14.195-5.601-27.484-15.724-37.42C93.629 5.439 80.243 0 66 0 51.766 0 38.428 5.446 28.444 15.335 18.431 25.25 12.91 38.532 12.893 52.747c.022 22.667 14.268 37.94 28.046 52.711 7.012 7.518 14.263 15.291 19.871 24.154zM66 12.266c22.656 0 41.109 18.16 41.135 40.47-.017 17.785-11.53 30.045-24.86 44.24-5.517 5.877-11.173 11.9-16.271 18.624-5.05-6.676-10.634-12.663-16.081-18.503C36.65 82.87 25.19 70.581 25.173 52.75 25.197 30.048 43.131 12.266 66 12.266z"/>
    <path d="M83.447 30.1a6.134 6.134 0 0 0-8.6 1.156 6.14 6.14 0 0 0 1.166 8.6c.593.453 1.164.952 1.696 1.484 6.463 6.463 6.469 16.974.013 23.43-6.456 6.456-16.967 6.45-23.43-.013-6.463-6.463-6.47-16.974-.013-23.43.64-.64 1.331-1.228 2.057-1.75a6.134 6.134 0 0 0 1.392-8.564 6.137 6.137 0 0 0-8.566-1.401 29.025 29.025 0 0 0-3.566 3.033c-11.239 11.238-11.229 29.535.022 40.786 11.251 11.25 29.547 11.26 40.786.022 11.239-11.239 11.229-29.535-.022-40.786a29.303 29.303 0 0 0-2.935-2.567z"/>
</svg>
