<svg width="201" height="243" viewBox="0 0 201 243" xmlns="http://www.w3.org/2000/svg">
    <title>
        Meldingen
    </title>
    <path fill-rule="evenodd" d="M174.43 111.059c0 9.625 2.658 16.422 7.251 24.909 5.278 9.366 16.434 31.442 18.828 44.815a28.427 28.427 0 0 1-6.081 23.453 28.377 28.377 0 0 1-21.901 10.287h-43.466c0 15.702-12.771 28.477-28.47 28.477-15.698 0-28.47-12.775-28.47-28.477H28.474a28.378 28.378 0 0 1-21.902-10.287 28.424 28.424 0 0 1-6.08-23.453c3.282-17.511 9.77-28.862 15.493-38.878l.002-.003c5.811-10.167 10.4-18.196 10.4-30.843V96.82c0-37.408 28.253-68.719 64.532-73.427v-13.9c0-5.243 4.249-9.493 9.49-9.493 5.242 0 9.49 4.25 9.49 9.492v13.873c16.341 2.062 31.457 9.532 43.23 21.502 13.737 13.967 21.302 32.418 21.302 51.953v14.239zm-73.839 112.957c-5.232 0-9.49-4.259-9.49-9.493h18.98c0 5.234-4.256 9.493-9.49 9.493zm79.233-31.905c1.065-1.284 2.745-4.008 2.029-7.831-1.318-9.007-11.792-29.937-16.864-39.276-4.615-8.529-9.539-18.889-9.539-33.945V96.82c0-29.933-24.243-54.615-54.054-55.049h-1.794c-29.912.435-54.236 25.117-54.236 55.049v14.238c0 17.691-6.56 29.167-12.903 40.266v.001c-5.224 9.139-10.624 18.588-13.316 32.955-.716 3.823.964 6.547 2.028 7.831 1.063 1.28 3.424 3.428 7.298 3.428h144.054c3.874 0 6.235-2.148 7.297-3.428z"/>
</svg>
