<svg width="120" height="120" viewBox="0 0 120 120" xmlns="http://www.w3.org/2000/svg">
    <title>
        Edit
    </title>
    <path fill-rule="evenodd" d="M112.968 7.033A23.852 23.852 0 0 0 95.99 0a23.853 23.853 0 0 0-16.977 7.032l-67.1 67.101a4.689 4.689 0 0 0-1.202 2.058L.171 114.056a4.687 4.687 0 0 0 5.797 5.765l37.865-10.755c1.598-.454 3.255-2.337 3.255-2.337l15.259-15.26 50.62-50.482A23.853 23.853 0 0 0 120 24.01a23.85 23.85 0 0 0-7.032-16.977zm-35.347 14.65l-55.62 55.62 20.596 20.659 13.13-13.13 42.58-42.464L77.62 21.682zM11.444 108.52l22.164-6.295-15.957-16.006-6.207 22.301zm93.501-72.772l1.398-1.395a14.533 14.533 0 0 0 4.282-10.343c0-3.91-1.522-7.584-4.286-10.348A14.54 14.54 0 0 0 95.99 9.375a14.535 14.535 0 0 0-10.348 4.287l-1.391 1.391 20.694 20.695z"/>
</svg>
