<svg width="158" height="158" viewBox="0 0 158 158" xmlns="http://www.w3.org/2000/svg">
    <title>
        Aanpassen
    </title>
    <path fill-rule="evenodd" d="M156.192 37.871l-35.99-36.06a6.164 6.164 0 0 0-8.723-.006l-95.783 95.66a6.186 6.186 0 0 0-1.59 2.723L.227 150.155a6.2 6.2 0 0 0 1.032 5.401A6.182 6.182 0 0 0 6.174 158c.57 0 1.138-.079 1.686-.236l49.87-14.193a6.167 6.167 0 0 0 2.726-1.624h.103l21.546-21.588 74.072-73.725A6.18 6.18 0 0 0 158 42.255a6.209 6.209 0 0 0-1.808-4.384zm-39.608 12.81l-69.27 69.406 8.787 8.831 17.302-17.336 52.155-51.91-8.974-8.99zm-93.337 62.741l-8.175 29.429 29.191-8.308-21.016-21.121zm5.736-11.758l9.614 9.661 69.257-69.392-9.517-9.535-69.354 69.266zm78.099-78l27.236 27.289 8.763-8.722-27.251-27.304-8.748 8.737z"/>
</svg>
