<svg width="512" height="512" viewBox="0 0 512 512" xmlns="http://www.w3.org/2000/svg">
    <title>
        Persoon
    </title>
    <path fill-rule="evenodd" d="M472.232 347.282c-32.817-48.944-80.47-84.534-134.804-102.417C370.538 220.036 392 180.477 392 136 392 61.01 330.991 0 256 0S120 61.01 120 136c0 44.504 21.488 84.084 54.633 108.911-30.368 9.998-58.863 25.555-83.803 46.069-45.732 37.617-77.53 90.086-89.532 147.742-3.762 18.067.745 36.623 12.363 50.909C25.22 503.847 42.365 512 60.693 512h390.613c18.329 0 35.472-8.153 47.032-22.369 11.62-14.286 16.126-32.842 12.364-50.909-3.039-26.622-26.913-72.053-38.47-91.44zm-4.926 117.112c3.988-4.906 4.236-7.894 4.236-17.519 0-18.375-20.277-57.385-32.533-77.318-40.039-59.713-106.155-95.944-177.687-97.66a138.302 138.302 0 0 1-10.624.001c-101.549 2.456-189.484 75.282-210.24 174.977-1.297 6.229.247 12.614 4.236 17.519 2.31 2.84 7.46 7.606 15.999 7.606h390.614c8.538 0 13.689-4.765 15.999-7.606zM256 40c-52.935 0-96 43.065-96 96 0 51.312 40.465 93.35 91.16 95.879a260.16 260.16 0 0 1 9.699-.001C311.545 229.339 352 187.305 352 136c0-52.935-43.065-96-96-96z"/>
</svg>
