<svg width="178" height="178" viewBox="0 0 178 178" xmlns="http://www.w3.org/2000/svg">
    <title>
        Opslaan
    </title>
    <path d="M106.035 51.453a6.953 6.953 0 0 0 6.953-6.953V31.29a6.953 6.953 0 1 0-13.906-.001v13.21a6.953 6.953 0 0 0 6.953 6.953z"/>
    <path fill-rule="evenodd" d="M178 115.422V35.461a6.96 6.96 0 0 0-2.037-4.917L147.456 2.037A6.953 6.953 0 0 0 142.539 0H27.813C12.476 0 0 12.477 0 27.813v122.375C0 165.523 12.477 178 27.813 178h122.375C165.523 178 178 165.523 178 150.188v-34.766zm-27.812 48.672c7.667 0 13.906-6.239 13.906-13.906V38.341l-24.435-24.435h-.249V54.93c0 11.502-9.357 20.86-20.859 20.86h-69.88c-11.501 0-20.858-9.359-20.858-20.86V13.906c-7.668 0-13.907 6.239-13.907 13.906v122.376c0 7.667 6.239 13.906 13.906 13.906v-55.625a6.953 6.953 0 0 1 6.954-6.953h108.468a6.953 6.953 0 0 1 6.954 6.953v55.625zm-13.907-48.672H41.719v48.672h94.562v-48.672zm-17.73-53.54a6.96 6.96 0 0 0 6.953-6.952V13.906H41.719V54.93a6.961 6.961 0 0 0 6.953 6.953h69.879z"/>
</svg>
