<svg width="195" height="212" viewBox="0 0 195 212" xmlns="http://www.w3.org/2000/svg">
    <title>
        Verwijderen
    </title>
    <path fill-rule="evenodd" d="M186.737 34.367h-49.989v-9.523c0-13.7-11.12-24.844-24.788-24.844H83.04C69.372 0 58.252 11.145 58.252 24.844v9.523H8.262C3.7 34.367 0 38.075 0 42.648c0 4.574 3.7 8.282 8.263 8.282h8.557l10.07 130.838.009.115a33.078 33.078 0 0 0 10.63 21.455A32.935 32.935 0 0 0 59.813 212h75.374c17.214 0 31.364-12.849 32.914-29.888l2.924-38.21 7.155-92.972h8.557c4.564 0 8.263-3.708 8.263-8.282 0-4.573-3.699-8.28-8.263-8.28zm-51.55 161.071c8.613 0 15.688-6.376 16.457-14.831l2.905-37.978 7.057-91.7H33.394l9.967 129.502c.804 8.559 7.868 15.007 16.452 15.007h75.374zm-60.41-161.07h45.445v-9.524c0-4.567-3.706-8.282-8.262-8.282H83.04c-4.556 0-8.263 3.715-8.263 8.282v9.523z"/>
    <path d="M59.957 67.5c-4.559.2-8.092 4.066-7.894 8.635l4.131 94.793c.194 4.446 3.852 7.92 8.249 7.92.121 0 .244-.002.367-.008 4.559-.2 8.093-4.065 7.894-8.635l-4.131-94.793c-.2-4.569-4.064-8.117-8.616-7.912zm66.47 7.912l-4.13 94.793c-.2 4.57 3.334 8.436 7.893 8.635.123.006.245.009.367.009 4.397 0 8.055-3.474 8.249-7.921l4.131-94.792c.2-4.57-3.335-8.436-7.894-8.635-4.552-.204-8.416 3.342-8.616 7.911zm-37.19.362v94.792c0 4.574 3.7 8.282 8.263 8.282 4.564 0 8.263-3.708 8.263-8.282V75.774c0-4.574-3.7-8.281-8.263-8.281s-8.263 3.707-8.263 8.28z"/>
</svg>
