<svg width="155" height="174" viewBox="0 0 155 174" xmlns="http://www.w3.org/2000/svg">
    <title>
        Verwijderen
    </title>
    <path d="M150.163 25.041h-36.26V19.14C113.903 8.586 105.304 0 94.734 0H60.266c-10.57 0-19.17 8.586-19.17 19.139v5.902H4.838A4.813 4.813 0 0 0 0 29.871 4.814 4.814 0 0 0 4.837 34.7h8.742v113.472C13.58 162.41 25.19 174 39.45 174h76.102c14.261 0 25.869-11.59 25.869-25.828V34.7h8.743A4.813 4.813 0 0 0 155 29.87a4.813 4.813 0 0 0-4.837-4.829zM50.771 19.14c0-5.223 4.264-9.48 9.495-9.48h34.468c5.231 0 9.495 4.257 9.495 9.48v5.902H50.771V19.14zm80.975 129.033c0 8.907-7.273 16.169-16.195 16.169H39.449c-8.922 0-16.195-7.262-16.195-16.169V34.7h108.528v113.472h-.036z"/>
    <path d="M77.5 147.027a4.813 4.813 0 0 0 4.837-4.83V56.844c0-2.684-2.15-4.83-4.837-4.83a4.813 4.813 0 0 0-4.837 4.83v85.318c0 2.683 2.15 4.865 4.837 4.865zM45.934 141.697a4.813 4.813 0 0 0 4.837-4.83V62.138c0-2.684-2.15-4.83-4.837-4.83a4.813 4.813 0 0 0-4.837 4.83v74.73c0 2.682 2.186 4.829 4.837 4.829zM109.066 141.697a4.813 4.813 0 0 0 4.837-4.83V62.138c0-2.684-2.15-4.83-4.837-4.83a4.813 4.813 0 0 0-4.837 4.83v74.73a4.814 4.814 0 0 0 4.837 4.829z"/>
</svg>
