<svg width="516" height="133" viewBox="0 0 516 133" xmlns="http://www.w3.org/2000/svg" xmlns:xlink="http://www.w3.org/1999/xlink">
    <title>
        Group
    </title>
    <desc>
        Created using Figma
    </desc>
    <use xlink:href="#a" transform="translate(230 47)" fill="#155429"/>
    <use xlink:href="#b" transform="translate(124.253 110.374)" fill="#1D6B34"/>
    <use xlink:href="#c" transform="translate(43.56 102.928)" fill="#1D6B34"/>
    <use xlink:href="#d" transform="translate(43.56 105.533)" fill="#155429"/>
    <use xlink:href="#e" transform="translate(2.372 110.374)" fill="#1D6B34"/>
    <use xlink:href="#f" transform="translate(2.372 110.374)" fill="#155429"/>
    <use xlink:href="#g" transform="translate(14.241 117.412)" fill="#FFF"/>
    <use xlink:href="#h" transform="translate(134.655 117.238)" fill="#FFF"/>
    <use xlink:href="#i" transform="translate(71.599 .568)" fill="#E3C029"/>
    <use xlink:href="#j" transform="translate(94.285 2.221)" fill="#D2AD15"/>
    <use xlink:href="#k" transform="translate(121.151 105.059)" fill="#155429"/>
    <use xlink:href="#l" transform="translate(90.638 108.855)" fill="#FFF"/>
    <use xlink:href="#m" transform="translate(162.324 91.448)" fill="url(#n)"/>
    <use xlink:href="#o" transform="translate(180.719 42.513)" fill="#D2AD15"/>
    <use xlink:href="#p" transform="translate(171.187 35.449)" fill="#EFD544"/>
    <use xlink:href="#q" transform="translate(133.054 27.61)" fill="#B98F16"/>
    <use xlink:href="#r" transform="translate(153.559 35.563)" fill="#D2AD15"/>
    <use xlink:href="#s" transform="translate(128.065 51.318)" fill="#E3C029"/>
    <use xlink:href="#t" transform="translate(151.924 53.764)" fill="#D2AD15"/>
    <use xlink:href="#u" transform="translate(132.878 53.924)" fill="#EFD544"/>
    <use xlink:href="#v" transform="translate(137.825 36.366)" fill="#F6E477"/>
    <use xlink:href="#w" transform="translate(125.067 21.874)" fill="#E3C029"/>
    <use xlink:href="#x" transform="translate(135.352 12.34)" fill="#EFD544"/>
    <use xlink:href="#y" transform="translate(128.218 82.127)" fill="#E3C029"/>
    <use xlink:href="#z" transform="translate(139.298 68.658)" fill="#D2AD15"/>
    <use xlink:href="#A" transform="translate(147.109 56.067)" fill="#EFD544"/>
    <use xlink:href="#B" transform="translate(153.442 15.353)" fill="#E3C029"/>
    <use xlink:href="#C" transform="translate(35.666 91.439)" fill="url(#D)"/>
    <use xlink:href="#E" transform="translate(4.064 42.504)" fill="#D2AD15"/>
    <use xlink:href="#F" transform="translate(.289 35.44)" fill="#E3C029"/>
    <use xlink:href="#G" transform="translate(21.377 27.601)" fill="#B98F16"/>
    <use xlink:href="#H" transform="translate(53.781 47.809)" fill="#E3C029"/>
    <use xlink:href="#I" transform="translate(32.229 35.554)" fill="#D2AD15"/>
    <use xlink:href="#J" transform="translate(49.382 51.309)" fill="#EFD544"/>
    <use xlink:href="#K" transform="translate(24.292 53.754)" fill="#E3C029"/>
    <use xlink:href="#L" transform="translate(14.796 70.048)" fill="#F6E477"/>
    <use xlink:href="#M" transform="translate(22.154 84.803)" fill="#E3C029"/>
    <use xlink:href="#N" transform="translate(46.054 53.915)" fill="#D2AD15"/>
    <use xlink:href="#O" transform="translate(30.8 36.357)" fill="#F6E477"/>
    <use xlink:href="#P" transform="translate(55.96 21.865)" fill="#D2AD15"/>
    <use xlink:href="#Q" transform="translate(39.437 12.331)" fill="#E3C029"/>
    <use xlink:href="#R" transform="translate(9.158 48.294)" fill="#EFD544"/>
    <use xlink:href="#S" transform="translate(35.692 78.192)" fill="#F6E477"/>
    <use xlink:href="#T" transform="translate(49.809 82.118)" fill="#D2AD15"/>
    <use xlink:href="#U" transform="translate(35.696 68.649)" fill="#E3C029"/>
    <use xlink:href="#V" transform="translate(35.702 56.058)" fill="#B98F16"/>
    <use xlink:href="#W" transform="translate(28.346 15.343)" fill="#EFD544"/>
    <use xlink:href="#X" transform="translate(69.926 25.825)" fill="#D2AD15"/>
    <use xlink:href="#Y" transform="translate(86.973 25.825)" fill="#B98F16"/>
    <use xlink:href="#Z" transform="translate(96.753 55.029)" fill="#4B4B4B"/>
    <use xlink:href="#aa" transform="translate(87.609 32.386)" fill="#FFF"/>
    <use xlink:href="#ab" transform="translate(92.498 53.394)" fill="#636363"/>
    <use xlink:href="#ac" transform="translate(105.552 56.783)"/>
    <use xlink:href="#ad" transform="translate(96.724 84.564)" fill="#4B4B4B"/>
    <use xlink:href="#ae" transform="translate(81.993 63.687)" fill="#636363"/>
    <use xlink:href="#af" transform="translate(74.805 35.383)"/>
    <use xlink:href="#ag" transform="translate(77.509 64.133)" fill="#4B4B4B"/>
    <use xlink:href="#ah" transform="translate(76.386 33.333)"/>
    <use xlink:href="#ai" transform="translate(105.724 50.525)" fill="#636363"/>
    <use xlink:href="#aj" transform="translate(156.847 48.304)" fill="#E3C029"/>
    <defs>
        <linearGradient id="n" x2="1" gradientUnits="userSpaceOnUse" gradientTransform="matrix(-.00117 0 0 .00117 .001 .003)">
            <stop offset="0" stop-color="#B98F16"/>
            <stop offset="1" stop-color="#D2AD15"/>
        </linearGradient>
        <linearGradient id="D" x2="1" gradientUnits="userSpaceOnUse" gradientTransform="matrix(.00117 0 0 .00117 0 .003)">
            <stop offset="0" stop-color="#B98F16"/>
            <stop offset="1" stop-color="#D2AD15"/>
        </linearGradient>
        <path id="a" d="M103.867 11.306c-5.402 0-9.221 2.695-11.197 6.639l-.067-.065c.33-1.775.46-4.405.46-5.982-4.346-.131-9.352.065-13.501.591v5.062c1.91.132 4.15.394 5.73.657v26.425h8.233V28.856c0-5.85 3.36-10.713 7.707-10.713 3.227 0 4.215 2.103 4.215 5.587v20.903h8.168V21.692c0-5.719-2.372-10.386-9.748-10.386zM20.023 0C14.556 0 9.09.263 5.533.263H0V5.39c1.712.394 3.754.723 5.73.854v32.407c-1.976.132-4.018.46-5.73.855v5.127h5.73c2.174 0 7.706.263 12.317.263 14.49 0 24.503-7.954 24.503-23.204C42.55 6.179 33.79 0 20.023 0zm-1.186 37.73c-1.646 0-3.49-.065-4.742-.262V7.164c1.383-.13 3.36-.197 5.335-.197 10.276 0 14.162 5.72 14.162 15.382 0 10.649-6.126 15.381-14.755 15.381zm43.93-26.424c-9.683 0-15.413 7.493-15.413 17.288 0 11.503 5.73 16.696 16.137 16.696 3.886 0 8.036-.723 11.725-1.972l-.856-6.113c-3.359 1.118-6.653 1.71-9.88 1.71-6.126 0-8.76-3.09-8.826-8.941h20.419s.263-2.366.263-4.798c0-7.756-4.018-13.87-13.569-13.87zM55.72 24.453c.46-4.47 3.096-7.1 6.652-7.1 3.623 0 5.928 2.433 5.796 7.1H55.72zm191.618-1.71c0-7.23-3.161-11.502-13.239-11.502-4.017 0-8.563.986-12.185 2.3l1.251 6.18c3.162-1.25 6.982-2.17 9.946-2.17 4.413 0 5.928 1.84 5.928 5.719v1.38c-11.46 0-18.97 3.68-18.97 11.372 0 5.324 3.491 9.268 9.353 9.268 4.941 0 8.958-2.63 10.539-6.31l.066.066c-.264 1.709-.329 3.68-.329 5.653 4.216.131 9.22-.066 13.371-.592v-5.061a65.865 65.865 0 0 1-5.73-.657l-.001-15.645zm-8.299 8.283c0 3.878-2.766 7.953-6.982 7.953-2.502 0-4.017-1.709-4.017-3.943 0-2.827 2.371-4.996 10.999-4.996v.986zm35.039-19.654c-11.526 0-17.849 7.559-17.849 18.602 0 9.992 4.347 15.316 12.184 15.316 4.348 0 8.035-2.366 9.749-6.178l.131.065c-.329 1.71-.395 3.155-.395 4.798v2.038c0 5.587-2.964 8.085-9.221 8.085-3.228 0-6.784-.591-9.682-1.643l-.791 7.428c2.767.657 6.323 1.117 10.012 1.117C280.664 61 286 55.15 286 45.225V12.358a70.977 70.977 0 0 0-11.922-.986zm3.754 16.17c0 5.719-2.7 10.912-7.245 10.912-3.886 0-5.73-3.155-5.73-9.268 0-8.217 3.49-11.306 8.431-11.306 1.646 0 3.095.197 4.544.526v9.136zM161.284 5.522c1.514.328 3.293.59 4.873.722v11.833h-19.166V6.245a39.595 39.595 0 0 0 4.874-.723V.264h-18.311V5.39c1.712.395 3.754.723 5.73.855V38.65c-1.976.132-4.018.46-5.73.855v5.127h18.311v-5.259a39.61 39.61 0 0 0-4.874-.723V25.308h19.167V38.65c-1.581.131-3.36.394-4.874.723v5.259h18.31v-5.127a37.447 37.447 0 0 0-5.73-.855V6.245a37.444 37.444 0 0 0 5.73-.855V.264h-18.31V5.52zm49.764 17.222c0-7.23-3.161-11.503-13.239-11.503-4.018 0-8.563.986-12.185 2.3l1.251 6.18c3.162-1.25 6.982-2.17 9.946-2.17 4.412 0 5.927 1.84 5.927 5.719v1.38c-11.46 0-18.969 3.68-18.969 11.372 0 5.324 3.491 9.268 9.353 9.268 4.941 0 8.958-2.63 10.539-6.31l.066.066c-.263 1.709-.329 3.68-.329 5.653 4.215.131 9.22-.066 13.37-.592v-5.061a65.91 65.91 0 0 1-5.73-.657V22.744zm-8.3 8.282c0 3.878-2.766 7.953-6.981 7.953-2.503 0-4.018-1.709-4.018-3.943 0-2.827 2.371-4.996 10.999-4.996v.986z"/>
        <path id="b" d="M35.764 2.21H0v19.975h35.764c26.01 0 35.599-1.977 35.599-1.977V0s-9.681 2.21-35.599 2.21z"/>
        <path id="c" d="M34.319 4.6l6.501 15.245a1318.64 1318.64 0 0 1 36.77.104V6.016l30.004-3.885s-4.169-.721-15.503-1.55C80.758-.25 64.481.053 64.481.053s-6.528 2.195-9.047 2.634c-2.519-.44-9.047-2.634-9.047-2.634S30.233-.248 18.9.58C7.583 1.407.045 2.6 0 2.606L34.319 4.6z"/>
        <path id="d" d="M32.864 3.916l.056 13.435c2.608-.046 5.242-.082 7.9-.111L34.319 1.995 0 0v3.846c23.17-.056 32.864.07 32.864.07z"/>
        <path id="e" d="M70.95 2.21H35.599C9.681 2.21 0 0 0 0v20.207s9.59 1.977 35.599 1.977H70.95V2.21z"/>
        <path id="f" d="M3.17.531C.986.225 0 0 0 0v20.207s3.457.712 11.842 1.282C6.28 15.208 3.592 7.423 3.17.53z"/>
        <path id="g" d="M0 0h3.801v1.19h-1.03l2.423 6.717c.101.276.16.596.232.886h.029c.072-.29.13-.61.232-.886L8.065 1.19H6.891V0h3.713v1.19H9.69l-3.48 8.966h-1.8L.885 1.19H0V0zm11.569 8.967h1.001l.058-7.777H11.57V0h4.512c2.088 0 3.075 1.204 3.075 2.684 0 1.756-1.132 2.554-2.422 2.684v.03c.565.043.942.522 1.29 1.102l1.103 1.857c.29.48.566.61.9.61h.377v1.19h-.943c-.856 0-1.248-.088-1.843-1.074l-1.392-2.365c-.42-.726-.638-.885-1.117-.885h-.87l-.03 3.134h1.176v1.19h-3.816v-1.19zm3.932-4.411c1.146 0 1.943-.61 1.943-1.698 0-1.059-.652-1.668-1.827-1.668h-1.35l-.03 3.366H15.5zm6.149 4.41h1.015l.058-7.776h-1.175V0h7.137l.058 2.67h-1.348l-.088-1.48h-2.944l-.03 3.133h2.902V5.6h-2.901l-.03 3.367h3.09l.117-1.654h1.363l-.116 2.843H21.65v-1.19zm8.862 0h1.03L31.6 1.19h-1.088V0h4.816c3.264 0 5.135 1.9 5.135 4.846 0 3.004-1.9 5.31-5.15 5.31h-4.8v-1.19zm4.28 0c2.48 0 3.873-1.508 3.873-4.047 0-2.279-1.306-3.73-3.801-3.73h-1.64l-.057 7.778h1.624zm6.816 0h1.016l.058-7.776h-1.175V0h7.137l.058 2.67h-1.35l-.086-1.48H44.32l-.029 3.133h2.901V5.6h-2.9l-.03 3.367h3.09l.116-1.654h1.363l-.116 2.843h-7.107v-1.19z"/>
        <path id="h" d="M0 9.14h1l.059-7.776H0V.174h4.511c2.09 0 3.075 1.204 3.075 2.684 0 1.756-1.131 2.554-2.422 2.684v.03c.566.043.943.522 1.291 1.102l1.103 1.857c.29.48.565.61.9.61h.376v1.19h-.943c-.855 0-1.247-.088-1.842-1.074L4.657 6.892c-.421-.726-.638-.885-1.117-.885h-.87L2.64 9.14h1.175v1.19H0V9.14zm3.931-4.41c1.146 0 1.944-.61 1.944-1.698 0-1.059-.652-1.668-1.828-1.668H2.698L2.67 4.73h1.262zm6.15 4.41h1.015l.058-7.776H9.98V.174h7.137l.058 2.67h-1.348l-.088-1.48h-2.944l-.03 3.133h2.902v1.278h-2.901l-.03 3.366h3.09l.117-1.654h1.363l-.116 2.844H10.08V9.14zM25.674 3.15V1.524a6.342 6.342 0 0 0-1.726-.247c-2.423 0-3.685 1.48-3.685 4.019 0 2.307 1.393 3.932 3.467 3.932.696 0 1.436-.073 1.813-.145l.058-1.828h1.45l-.057 2.77c-.653.218-1.958.48-3.162.48-3.641 0-5.367-2.264-5.367-5.151C18.465 2.19 20.582 0 23.962 0c1.277 0 2.481.276 3.162.551V3.15h-1.45zm9.37 5.992h1.015l.03-3.265h-4.715l-.03 3.265h1.089v1.19H28.69V9.14h1.016l.058-7.777H28.69V.174h3.743v1.19h-1.03l-.03 3.235h4.715l.03-3.235h-1.074V.174h3.742v1.19h-1.03L37.7 9.14h1.087v1.19h-3.742V9.14zm7.59 0h1.044l.058-7.777H41.37l-.058 1.48h-1.45l.058-2.67h9.212l.057 2.67h-1.45l-.058-1.48H45.36l-.058 7.777h1.175v1.19h-3.844V9.14z"/>
        <path id="i" d="M27.909 20.953c9.7 0 17.01.474 21.872.946l1.104-8.837c-4.753-.42-13.698-1.469-23.421-1.469-9.815 0-19.032 1.062-23.874 1.48l1.152 8.957c4.818-.51 12.563-1.077 23.167-1.077zm15.467-3.966c.088-.725.973-1.212 2.2-1.212.19 0 .386.012.58.034.649.081 1.247.285 1.688.577.522.348.78.787.723 1.238-.088.725-.97 1.213-2.196 1.213-.192 0-.388-.012-.583-.036-1.48-.181-2.516-.96-2.412-1.814zm-6.711-2.197l2.971 1.63-3.052 1.47-2.973-1.628 3.054-1.472zm-9.389-.284c1.604 0 2.813.69 2.813 1.607 0 .916-1.209 1.607-2.813 1.607s-2.814-.691-2.814-1.607 1.21-1.607 2.814-1.607zm-9.389.284l3.054 1.47-2.972 1.63-3.054-1.47 2.972-1.63zm-11.18 1.596c.442-.292 1.042-.496 1.69-.577.194-.022.388-.034.58-.034 1.226 0 2.11.486 2.2 1.211.105.854-.934 1.633-2.413 1.815-.196.024-.39.036-.58.036-1.227 0-2.111-.488-2.2-1.213-.055-.45.201-.89.724-1.238zM29.779 2.413a2.351 2.351 0 1 0-4.7-.124 2.351 2.351 0 0 0 4.7.124zM4.701 4.004a2.352 2.352 0 1 0-4.7 0 2.35 2.35 0 1 0 4.7 0zM24.73 5.301a2.352 2.352 0 0 0-2.35 2.35 2.353 2.353 0 0 0 4.701 0 2.352 2.352 0 0 0-2.351-2.35zm-5.395.4a2.35 2.35 0 1 0 0 4.7 2.347 2.347 0 0 0 2.35-2.35 2.349 2.349 0 0 0-2.35-2.351zm-5.396.396a2.35 2.35 0 1 0 0 4.7 2.35 2.35 0 0 0 0-4.7zm-5.395.397a2.351 2.351 0 1 0 1.662 4.013 2.35 2.35 0 0 0-1.662-4.013zm-5.397.398a2.348 2.348 0 0 0-2.349 2.35 2.35 2.35 0 1 0 4.01-1.662 2.35 2.35 0 0 0-1.661-.688zm26.98-1.59a2.35 2.35 0 0 0-.798 4.562l2.312-4.008a2.344 2.344 0 0 0-1.514-.555z"/>
        <path id="j" d="M29.818 0a2.35 2.35 0 1 0 0 4.7 2.35 2.35 0 0 0 0-4.7zm-.794 5.239a2.35 2.35 0 1 0 0 4.7 2.35 2.35 0 0 0 0-4.7zm-5.396-.397a2.35 2.35 0 0 0 0 4.701 2.35 2.35 0 0 0 0-4.701zm-5.397-.397a2.35 2.35 0 1 0-.124 4.699 2.35 2.35 0 0 0 .124-4.7zm-5.396-.397a2.35 2.35 0 0 0 0 4.7 2.35 2.35 0 0 0 0-4.7zm-3.88.156L6.642 8.212a2.35 2.35 0 0 0 2.313-4.008zM4.591 16.067c-.951 0-1.763-.243-2.268-.631L0 19.347c1.658-.03 3.398-.047 5.223-.047 9.7 0 17.01.475 21.873.947l1.103-8.837C23.576 11 14.993 9.998 5.584 9.943L3.822 12.91c.254-.038.511-.056.769-.056 1.603 0 2.813.69 2.813 1.606 0 .916-1.21 1.607-2.813 1.607zm16.099-.732c.089-.726.973-1.213 2.2-1.213.19 0 .386.012.58.035.65.08 1.247.284 1.689.577.521.348.779.787.723 1.238-.089.725-.971 1.213-2.197 1.213-.191 0-.387-.012-.582-.037-1.48-.18-2.517-.96-2.413-1.813zm-6.71-2.197l2.97 1.629-3.052 1.471-2.973-1.629 3.054-1.471z"/>
        <path id="k" d="M0 3.884v.507h33.401V.475S32.176.283 30.003 0L0 3.884zm72.3 21.984c1.484-.23 2.165-.345 2.165-.345V5.315s-2.386.545-7.957 1.093c3.783 4.61 5.293 12.115 5.791 19.46z"/>
        <path id="l" d="M.088 7.76h.878l.05-6.73H0V0h6.177l.05 2.31H5.06l-.075-1.28H2.436L2.41 3.742h2.51v1.105h-2.51l-.026 2.914H5.06l.101-1.432h1.18l-.1 2.462H.088V7.76zm7.72 0h.853l.05-6.73H7.608V0h2.31l4.068 5.312c.263.352.64.93.878 1.319h.025l-.05-5.6h-.979V0h3.063v1.03h-.853l-.05 7.76h-1.143l-4.394-5.7c-.252-.327-.49-.679-.615-.93l-.025.025.05 5.576h.966v1.03h-3.05V7.76z"/>
        <path id="m" d="M0 .007V0l.001.007H0z"/>
        <path id="o" d="M12.536 7.437c0-4.563-6.09-3.122-9.43-3.122C-.234 4.316.005 0 .005 0h6.358c5.075 0 8.32 3.13 6.174 7.437z"/>
        <path id="p" d="M2.337 5.164C3.82 3.68 5.359 2.862 7.548 2.862c4.86 0 11.887-.31 12.868-2.862.853.895.774 2.701-1.303 4.777 5.471 0 6.434 1.244 6.986 2.408 1.428 3.008-1.05 7.316-4.031 7.316 2.146-4.307-1.1-7.437-6.175-7.437H7.548c-.744 0-1.561.39-2.241 1.07a3.704 3.704 0 0 0 0 5.23L15.38 23.438c.636.636 1.096 1.358 1.47 2.126L.28 12.855a7.918 7.918 0 0 1 2.057-7.691z"/>
        <path id="q" d="M28.596 3.137a5.53 5.53 0 0 1-.161-.857c1.461-1.715 3.901-2.39 7.197-.998C39.78 3.032 43.56 0 43.56 0c-2.853 5.466-6.814 3.693-10.248 2.614-1.876-.589-3.636-.01-4.716.523zm-17.46 20.56a194.842 194.842 0 0 0-6.365-3.488H4.77l1.341 5.804S2.132 32.49 0 36.005c.046.023.094.041.14.066l11.016-12.362-.02-.012z"/>
        <path id="r" d="M9.694 6.578c0-4.25-2.868-5.993-4.15-6.561C3.643-.061 1.682.117 0 .804c.548 5.024 7.765 11.741 12.102 13.225l.102.032c-2.071-1.598 1.373-7.483-2.51-7.483z"/>
        <path id="s" d="M20.525 2.595A154.845 154.845 0 0 0 16.145 0L5.128 12.362a4.298 4.298 0 0 0-2.035-.53v4.332H3.1c-1.859.41-3.1 1.95-3.1 4.325h3.102L3.1 24.353c.41.456 1.056.748 1.713.766L20.544 2.606c-.007-.003-.022-.006-.019-.011z"/>
        <path id="t" d="M12.87 0C8.578 2.693.022 2.309.014 2.303L0 2.294c-.01.004 2.416 1.488 4.925 3.907l16.85 2.683L12.87 0zm18.401 30.343c-1.948 0-7.834-.777-7.834-5.098v-8.95l-4.494 7.33-.059 7.423c7.258 8.33 5.44 17.826 2.129 21.652v2.874c2.06-.04 4.083-.088 6.024-.158l-.507-2.16 2.69-4.666s-1.175-15.021 2.051-18.247z"/>
        <path id="u" d="M15.731 0L0 22.514c.022 0 .042.004.066.004.264 0 5.565-3.94 5.565-3.94L19.06 2.143A93.515 93.515 0 0 0 15.731 0z"/>
        <path id="v" d="M15.734 0C9.919 3.006 7.254 11.696 0 11.453c.01.004 8.245 4.273 14.113 8.248.011.008 15.253.69 15.253-6.174-3.869 0-13.012-7.847-13.632-13.527z"/>
        <path id="w" d="M13.86 20.772c1.26-3.26 1.723-8.564 3.104-13.83l-6.596-4.195L8.784 0H1.377L0 2.386c2.86.276 4.69.485 4.746.49l1.293.163v10.346l7.821 7.387z"/>
        <path id="x" d="M12.513 5.105V.665l4.566 2.01c-.04-.236-.137-1.48 2.013-2.675-.093 1.339 1.857 2.323 4.11 3.012-2.336 5.43-5.79 13.743-4.995 21.014-5.814 3.006-8.48 11.696-15.734 11.453 0 0-1.853-.88-2.473-1.96 6.88 0 3.152-19.05 12.513-28.414zm18.88 72.024c2.239 2.247 3.582 4.85 3.582 7.363 0 5.67-3.839 7.734-3.839 7.734-4.553-1.46-5.83 3.165-6.146 4.845 1.61.002 3.286.003 5.03.003 2.492 0 5.203-.027 7.565-.07v-2.88c3.311-3.826 5.13-13.323-2.128-21.652l-4.064 4.657zm-4.446-7.916l-.003-3.352v.64l-14.115 3.286L3.485 88.19c2.803.229 5.32.473 7.502.708l-.9-2.383L21.48 70.26l5.468-1.046z"/>
        <path id="y" d="M13.374 1.534c-1.052 9.192-7.081 12.107-7.081 12.107s-1.152-.286-2.344-.286C1.297 13.355 0 17.74 0 17.74c1.4.063 2.865.147 4.332.238 2.097.111 4.19.256 6.282.435L19.964 0l-6.59 1.535z"/>
        <path id="z" d="M22.991 4.45L16.924 0 0 14.014s.88 1.226 2.294.99l20.703-4.821-.006-5.733z"/>
        <path id="A" d="M4.828 0L0 5.909 15.18 17.04l-.003-2.876c0-.957-.162-1.896-.444-2.804-.883-2.927-2.962-5.505-4.993-7.463C7.31 1.556 4.966.094 4.828 0z"/>
        <path id="B" d="M16.202 7.004l-3.91-2.914-.663-2.783S8.103.915 5.111 0C2.776 5.43-.679 13.742.116 21.014c5.378-2.193 13.6.797 13.6.797l-1.292-3.478 1.887-2.186s-5.601.653-5.603.65c-1.654-3.72-.27-5.553 3.333-5.553a5.55 5.55 0 0 1 2.669.73l.78-2.54-.675-1.257.954.088.433-1.26zM7.59 4.486c-1.022.035-1.875-.627-1.902-1.477-.003-.096.008-.19.024-.282a40.13 40.13 0 0 1 3.648.42c-.126.73-.859 1.308-1.77 1.339z"/>
        <path id="C" d="M0 .007V0v.007z"/>
        <path id="E" d="M.672 7.437c0-4.563 6.09-3.121 9.43-3.121S13.205 0 13.205 0H6.846C1.771 0-1.474 3.13.672 7.437z"/>
        <path id="F" d="M24.178 5.164c-1.483-1.484-3.023-2.302-5.212-2.302C14.107 2.862 7.08 2.552 6.1 0c-.853.895-.774 2.7 1.303 4.776C1.93 4.776.967 6.021.415 7.185c-1.427 3.008 1.05 7.316 4.032 7.316-2.146-4.308 1.1-7.437 6.174-7.437h8.345c.745 0 1.562.39 2.241 1.07a3.703 3.703 0 0 1 0 5.23L11.134 23.438c-.636.636-1.095 1.358-1.469 2.126l16.57-12.71c.73-2.651.023-5.61-2.057-7.691z"/>
        <path id="G" d="M14.964 3.137c.082-.303.133-.587.161-.857C13.664.565 11.224-.11 7.928 1.28 3.78 3.031 0 0 0 0c2.853 5.466 6.814 3.693 10.249 2.614 1.875-.59 3.635-.01 4.716.523z"/>
        <path id="H" d="M.02 3.488A196.146 196.146 0 0 1 6.384 0h.001L5.044 5.804s3.98 6.477 6.112 9.992c-.046.023-.094.042-.14.065L0 3.5v-.001l.02-.01z"/>
        <path id="I" d="M6.66.017c-1.283.568-4.15 2.31-4.15 6.56-3.884 0-.44 5.886-2.51 7.484l.102-.032c4.336-1.484 11.554-8.2 12.102-13.225C10.522.117 8.56-.061 6.66.017z"/>
        <path id="J" d="M.018 2.595A154.962 154.962 0 0 1 4.4 0l11.017 12.362a4.304 4.304 0 0 1 2.035-.53v4.332h-.007c1.858.41 3.1 1.949 3.1 4.325h-3.102l.002 3.864c-.41.456-1.056.748-1.713.766L0 2.606c.007-.003.022-.005.018-.01v-.001z"/>
        <path id="K" d="M8.905 0c4.292 2.694 12.848 2.309 12.857 2.303l.013-.008c.01.003-2.416 1.487-4.925 3.906L0 8.885 8.905 0z"/>
        <path id="L" d="M0 14.049c1.948 0 7.835-.777 7.835-5.098V0l4.493 7.33.059 7.424c-7.259 8.329-5.44 17.826-2.129 21.652v2.874c-2.06-.04-4.083-.088-6.023-.159l.506-2.16-2.69-4.665S3.227 17.275.002 14.049H0z"/>
        <path id="M" d="M2.9 24.532c2.362.043 5.073.07 7.566.07 1.744 0 3.42-.001 5.03-.003-.316-1.68-1.593-6.305-6.147-4.845 0 0-3.838-2.063-3.838-7.734 0-2.52 1.329-5.114 3.58-7.365L5.028 0C-2.23 8.329-.411 17.826 2.9 21.652v2.88z"/>
        <path id="N" d="M3.329 0L19.06 22.514c-.022 0-.042.004-.067.004-.263 0-5.564-3.94-5.564-3.94L0 2.143A93.598 93.598 0 0 1 3.329 0z"/>
        <path id="O" d="M0 13.527c0 6.864 15.242 6.181 15.254 6.174 5.868-3.975 14.102-8.244 14.113-8.249-7.255.243-9.92-8.446-15.734-11.452C13.013 5.68 3.869 13.527 0 13.527z"/>
        <path id="P" d="M3.103 20.772C1.843 17.512 1.381 12.207 0 6.942l6.596-4.195L8.179 0h7.408l1.377 2.386c-2.86.276-4.69.485-4.746.49l-1.294.163v10.346L3.103 20.77z"/>
        <path id="Q" d="M10.689 5.105V.664l-4.566 2.01C6.163 2.439 6.26 1.195 4.11 0 4.203 1.339 2.253 2.323 0 3.012c2.336 5.43 5.79 13.743 4.995 21.014 5.814 3.006 8.48 11.696 15.734 11.452 0 0 1.853-.88 2.473-1.958-6.88 0-3.152-19.051-12.513-28.415z"/>
        <path id="R" d="M31.986 11.66l-.002.001.002-.002zM2.304 21.755a7.842 7.842 0 0 0 5.584 2.313 7.844 7.844 0 0 0 5.585-2.314l4.493 7.33.059 7.424 8.494 9.737.028-24.316c0-.957.161-1.896.444-2.804.882-2.927 2.962-5.505 4.993-7.464l-16.85 2.684-3.452 3.394s-3.711 3.743-6.406 1.045a3.7 3.7 0 0 1 0-5.229L15.347 3.481A7.835 7.835 0 0 0 17.367 0L.797 12.711c-1.432 2.946-.936 6.6 1.507 9.043z"/>
        <path id="S" d="M0 3.352L.003 0h.001v.64l14.114 3.286 9.344 18.404c-2.803.228-5.32.473-7.501.708l.899-2.382L5.468 4.398 0 3.352z"/>
        <path id="T" d="M6.59 1.534c1.052 9.192 7.081 12.106 7.081 12.106s1.151-.286 2.344-.286c2.651 0 3.948 4.387 3.948 4.387-1.399.063-2.865.147-4.332.238a193.035 193.035 0 0 0-6.282.435L0 0l6.59 1.534z"/>
        <path id="U" d="M.006 4.45L6.074 0l16.923 14.014s-.88 1.226-2.293.989L0 10.183l.006-5.734z"/>
        <path id="V" d="M10.352 0L15.18 5.91 0 17.04l.003-2.875c0-.958.162-1.896.445-2.805.881-2.927 2.961-5.505 4.992-7.463C7.87 1.556 10.214.094 10.352 0z"/>
        <path id="W" d="M11.091 0C8.1.915 4.574 1.308 4.574 1.308L3.91 4.09 0 7.004l.434 1.261.953-.087-.675 1.257.78 2.539s1.167-.73 2.67-.73c3.603 0 4.987 1.833 3.333 5.553-.002.003-5.604-.65-5.604-.65l1.888 2.186-1.292 3.478s8.222-2.99 13.6-.797C16.88 13.743 13.427 5.431 11.09 0zM8.614 4.487c-.912-.032-1.645-.61-1.77-1.34a39.986 39.986 0 0 1 3.647-.42c.018.093.026.187.024.282-.026.85-.88 1.512-1.9 1.478z"/>
        <path id="X" d="M58.138 54.516c0 16.313-29.07 22.091-29.07 22.091S0 70.83 0 54.515V1.867S9.837 0 29.068 0c19.234 0 29.07 1.867 29.07 1.867v52.648z"/>
        <path id="Y" d="M12.021 76.607s29.07-5.778 29.07-22.092V1.867S31.255 0 12.021 0C7.491 0 3.482.104 0 .262 26.245 1.311 36.734 4.86 36.734 4.86s.023 36.724.023 50.182c0 13.458-24.735 21.565-24.735 21.565z"/>
        <path id="Z" d="M8.11 2.672l-2.225-.277-.688.919L0 0c.523 2.616 1.948 7.6 5.605 11.84 2.436 1.762 4.982 3.608 7.004 5.073-.16-8.559-3.057-13.271-3.81-15.16l-.689.919z"/>
        <path id="aa" d="M6.617 28.608c-2.723-1.945-1.832-5.79-.04-7.6l7.764 4.949.688-.919 2.226.277.688-.919 5.741.989c-1.071-1.716-2.857-4.479-5.57-6.328l.689-.918c-1.387-.654-4.557-1.171-8.221-1.171h-5.59l3.95-11.263c1.05-3.03-.82-5.456-2.857-5.68-3.077-.34-4.35 2.972-4.35 2.972L5.11 6.435C5.186 6.453.758 16.782.758 16.782.306 17.864.01 19.266 0 20.781c-.018 2.892 1.303 5.845 3.996 8.462 2.284 2.22 12.17 9.975 12.17 9.975l.796-1.058 4.791 1.396S7.378 29.15 6.617 28.608z"/>
        <path id="ab" d="M4.255 1.636L1.688 0c-1.792 1.81-2.683 5.656.04 7.6.829.59 4.343 3.133 8.132 5.875-3.656-4.24-5.082-9.223-5.605-11.84z"/>
        <path id="ac" d="M5.741.988L0 0c.753 1.889 3.651 6.6 3.81 15.159l3.91 2.832 1.133-1.51 2.97 2.056a35.812 35.812 0 0 0-.674-3.86C9.862 8.633 7.73 4.086 5.741.987z"/>
        <path id="ad" d="M9.539 8.522c-.127-.32-.365-.626-.82-.626H7.052V0L5.685.62v7.252H3.15c-.294 0-.862.419-1.057.419H.961c-.457 0-.695.304-.82.625l-.083.249-.048.314c-.01.1-.01.168-.01.168h2.733l.561-.417h1.14c-.718.441-1.486.915-1.778 1.093-.39.239-.438.626-.38.965l.06.263.117.285c.044.092.076.15.076.15l4.63-2.734h2.52s-.001-.066-.011-.168L9.59 8.76l-.051-.237z"/>
        <path id="ae" d="M.257.102L0 .446l.153 2.243.428-.577.308.037 1.766 3.067.06-.037.22-.18.191-.17c.256-.278.47-.68.214-1.13l-.323-.562 5.223 2.48 2.135-.505-8.559-4.055c-.19-.325-.45-.82-.45-.82C1.216.003.649-.085.257.103z"/>
        <path id="af" d="M17.915 3.438L14.54 0 0 3.438h17.915z"/>
        <path id="ag" d="M4.205.375L1.424.732S.594 1.797.169 2.366c-.273.368-.174.742.004 1.038l.169.218.199.225c.072.067.126.108.126.108l1.417-1.907 1.144-.162c-.547.739-1.132 1.523-1.335 1.8-.273.367-.174.743.007 1.037l.18.233.185.21c.073.068.126.11.126.11l2.246-3.033L4.484 0l-.279.375zm18.75 4.474a517.14 517.14 0 0 1-1.367-1.091v3.974l-.202.025-6.527-3.091-2.136.504 8.14 3.866.835 1.077 1.34-.193.504-1.268-.588-.758V4.85z"/>
        <path id="ah" d="M18.241 2.037s-1.556.697-1.937.697c-.379 0-.735-.313-.735-.697 0-.384.356-.696.735-.696.381 0 1.937.696 1.937.696zM2.305 10.67c-.976-1.728.167-2.785.97-3.596.58-.59 1.083-1.096 1.093-1.84.015-.978-.54-1.156-1.906-1.354-.811-.119-1.65-.24-2.128-.856a1.538 1.538 0 0 1-.317-1.186C.16.892 1.128.186 1.237.11a.596.596 0 0 1 .836.15.61.61 0 0 1-.149.845c-.215.153-.67.576-.72.916-.01.068-.008.146.078.257.177.232.8.321 1.35.402 1.182.172 2.967.431 2.935 2.572-.017 1.235-.775 2.002-1.443 2.679-.76.77-1.381 1.332-.97 2.418.27.713 1.49 1.09 1.256 1.512-.221.397-1.626-.343-2.105-1.19zM27.39 38.272s-.53-.416-1.367-1.078V39.7h.016l-.677 1.183.661 1.16v9.81l1.367-.621v-9.165l.677-1.184-.677-1.183V38.27z"/>
        <path id="ai" d="M8.236 23.33l-.688.919.688-.919zm-.25-18.283C5.903 2.891 3.433 1.157.688 0L0 .919C2.712 2.767 4.498 5.53 5.57 7.246c1.989 3.1 4.12 7.646 5.407 13.688.295 1.273.52 2.562.674 3.86l2.87 2.013c1.464-8.303-1.316-16.358-6.535-21.76z"/>
        <path id="aj" d="M.002 11.661L0 11.66l.002.002zm31.188 1.05L14.62 0a7.835 7.835 0 0 0 2.019 3.48l10.07 10.075a3.7 3.7 0 0 1 0 5.229c-2.694 2.698-6.405-1.045-6.405-1.045l-3.452-3.395-16.85-2.683c2.03 1.958 4.11 4.536 4.993 7.463.282.908.444 1.847.444 2.805 0 0 .023 21.604.028 24.316l8.494-9.737.059-7.424 4.493-7.33a7.844 7.844 0 0 0 5.585 2.313 7.84 7.84 0 0 0 5.584-2.313c2.443-2.444 2.939-6.097 1.508-9.043z"/>
    </defs>
</svg>
